<svg width="80" height="80" viewBox="0 0 80 80" fill="none" xmlns="http://www.w3.org/2000/svg">
<path d="M52 39.5C52 46.4036 46.4036 52 39.5 52C32.5964 52 27 46.4036 27 39.5C27 32.5964 32.5964 27 39.5 27C39.5 27 40.0484 27.3025 40.2783 27.614C40.5003 27.9149 40.5455 28.1402 40.6316 28.5041C40.9297 29.7638 39.8289 30.3923 39.6731 31.6774C39.4903 33.1848 39.564 34.474 39.9926 35.5525C40.3121 36.36 40.79 37.0849 41.3978 37.7119C42.3511 38.5968 43.481 39.2005 44.72 39.4249C45.7954 39.6236 46.606 39.447 47.7877 39.2366C48.9139 39.0361 49.5085 38.063 50.5982 38.411C50.9487 38.523 51.1425 38.6244 51.4294 38.8548C51.6916 39.0654 52 39.5 52 39.5Z" fill="#CFD8DC"/>
</svg>
