<svg width="80" height="80" viewBox="0 0 80 80" fill="none" xmlns="http://www.w3.org/2000/svg">
<path d="M56 30.5C56 34.6421 52.6421 38 48.5 38C44.3579 38 41 34.6421 41 30.5C41 26.3579 44.3579 23 48.5 23C48.5 23 48.8291 23.1815 48.967 23.3684C49.1002 23.549 49.1273 23.6841 49.1789 23.9024C49.3578 24.6583 48.6973 25.0354 48.6039 25.8064C48.4942 26.7109 48.5384 27.4844 48.7955 28.1315C48.9872 28.616 49.274 29.051 49.6387 29.4271C50.2107 29.9581 50.8886 30.3203 51.632 30.455C52.2772 30.5742 52.7636 30.4682 53.4726 30.342C54.1483 30.2216 54.5051 29.6378 55.1589 29.8466C55.3692 29.9138 55.4855 29.9746 55.6576 30.1129C55.815 30.2392 56 30.5 56 30.5Z" fill="#DDDDDD"/>
<path d="M50.8565 45C54.1942 44.3973 56.4148 41.2307 55.9349 38.1041C55.4921 35.2206 52.8557 32.983 49.7309 33.0063C48.6274 28.3664 44.5494 25.1066 40 25C35.4506 25.1066 31.3726 28.3664 30.2691 33.0063C27.1443 32.983 24.5079 35.2206 24.0651 38.1041C23.5852 41.2307 25.8058 44.3973 29.1435 45H50.8565Z" fill="#9F9F9F"/>
<path d="M31.0001 54C29 54 28 53 28 51C27.9999 49 30.4998 46 31.0001 46C31.5004 46 34 49 33.9999 51C33.9999 53 32.9999 54 31.0001 54Z" fill="#45D6CD"/>
<path d="M40.0001 54C38 54 37 53 37 51C36.9999 49 39.4998 46 40.0001 46C40.5004 46 43 49 42.9999 51C42.9999 53 41.9999 54 40.0001 54Z" fill="#45D6CD"/>
<path d="M49.0001 54C47 54 46 53 46 51C45.9999 49 48.4998 46 49.0001 46C49.5004 46 52 49 51.9999 51C51.9999 53 50.9999 54 49.0001 54Z" fill="#45D6CD"/>
</svg>
