<svg width="80" height="80" viewBox="0 0 80 80" fill="none" xmlns="http://www.w3.org/2000/svg">
<path d="M56 30.5C56 34.6421 52.6421 38 48.5 38C44.3579 38 41 34.6421 41 30.5C41 26.3579 44.3579 23 48.5 23C48.5 23 48.8291 23.1815 48.967 23.3684C49.1002 23.549 49.1273 23.6841 49.1789 23.9024C49.3578 24.6583 48.6973 25.0354 48.6039 25.8064C48.4942 26.7109 48.5384 27.4844 48.7955 28.1315C48.9872 28.616 49.274 29.051 49.6387 29.4271C50.2107 29.9581 50.8886 30.3203 51.632 30.455C52.2772 30.5742 52.7636 30.4682 53.4726 30.342C54.1483 30.2216 54.5051 29.6378 55.1589 29.8466C55.3692 29.9138 55.4855 29.9746 55.6576 30.1129C55.815 30.2392 56 30.5 56 30.5Z" fill="#DDDDDD"/>
<path d="M50.8565 45C54.1942 44.3973 56.4148 41.2307 55.9349 38.1041C55.4921 35.2206 52.8557 32.983 49.7309 33.0063C48.6274 28.3664 44.5494 25.1066 40 25C35.4506 25.1066 31.3726 28.3664 30.2691 33.0063C27.1443 32.983 24.5079 35.2206 24.0651 38.1041C23.5852 41.2307 25.8058 44.3973 29.1435 45H50.8565Z" fill="#9F9F9F"/>
<path d="M30.5333 53.3608V51L29.526 50.9989C28.9364 50.9989 28.9364 50.9231 29.0774 50.3852L30.5182 46.6403C31 45.3837 31.4667 46.3068 31.4667 46.6392V49L32.474 49.0011C33.0636 49.0011 33.0636 49.0769 32.9226 49.6148L31.4818 53.3597C31 54.6163 30.5333 53.6932 30.5333 53.3608Z" fill="#FFC407"/>
<path d="M39.5333 53.3608V51L38.526 50.9989C37.9364 50.9989 37.9364 50.9231 38.0774 50.3852L39.5182 46.6403C40 45.3837 40.4667 46.3068 40.4667 46.6392V49L41.474 49.0011C42.0636 49.0011 42.0636 49.0769 41.9226 49.6148L40.4818 53.3597C40 54.6163 39.5333 53.6932 39.5333 53.3608Z" fill="#FFC407"/>
<path d="M48.5333 53.3608V51L47.526 50.9989C46.9364 50.9989 46.9364 50.9231 47.0774 50.3852L48.5182 46.6403C49 45.3837 49.4667 46.3068 49.4667 46.6392V49L50.474 49.0011C51.0636 49.0011 51.0636 49.0769 50.9226 49.6148L49.4818 53.3597C49 54.6163 48.5333 53.6932 48.5333 53.3608Z" fill="#FFC407"/>
</svg>
