<svg width="80" height="80" viewBox="0 0 80 80" fill="none" xmlns="http://www.w3.org/2000/svg">
<circle cx="48.5" cy="30.5" r="7.5" fill="#FFC407"/>
<path d="M50.8565 45C54.1942 44.3973 56.4148 41.2307 55.9349 38.1041C55.4921 35.2206 52.8557 32.983 49.7309 33.0063C48.6274 28.3664 44.5494 25.1066 40 25C35.4506 25.1066 31.3726 28.3664 30.2691 33.0063C27.1443 32.983 24.5079 35.2206 24.0651 38.1041C23.5852 41.2307 25.8058 44.3973 29.1435 45H50.8565Z" fill="#CFD8DC"/>
<rect x="30.3492" y="46" width="1.3" height="8" rx="0.65" fill="#CFD8DC"/>
<rect x="27.86" y="52.563" width="1.3" height="8" rx="0.65" transform="rotate(-120 27.86 52.563)" fill="#CFD8DC"/>
<rect x="27.2101" y="48.563" width="1.3" height="8" rx="0.65" transform="rotate(-60 27.2101 48.563)" fill="#CFD8DC"/>
<rect x="39.3492" y="46" width="1.3" height="8" rx="0.65" fill="#CFD8DC"/>
<rect x="36.86" y="52.563" width="1.3" height="8" rx="0.65" transform="rotate(-120 36.86 52.563)" fill="#CFD8DC"/>
<rect x="36.2101" y="48.563" width="1.3" height="8" rx="0.65" transform="rotate(-60 36.2101 48.563)" fill="#CFD8DC"/>
<rect x="48.3492" y="46" width="1.3" height="8" rx="0.65" fill="#CFD8DC"/>
<rect x="45.86" y="52.563" width="1.3" height="8" rx="0.65" transform="rotate(-120 45.86 52.563)" fill="#CFD8DC"/>
<rect x="45.2101" y="48.563" width="1.3" height="8" rx="0.65" transform="rotate(-60 45.2101 48.563)" fill="#CFD8DC"/>
</svg>
